# xmcd CD database file
#
# Track frame offsets:
#	150
#	14851
#	27460
#	42222
#	56374
#	71762
#	86360
#	100830
#	115551
#	128773
#	141216
#	155437
#	169252
#	183489
#
# Disc length: 2620 seconds
#
# Revision: 0
# Processed by: cddbd v1.4PL0 Copyright (c) Steve Scherf et al.
# Submitted via: CDex 1.50Beta3
#
DISCID=bb0a3a0e
DTITLE=Cab Calloway - Forever Gold
DYEAR=1999
DGENRE=Jazz
TTITLE0=Minnie The Moocher
TTITLE1=Jumpin' Jive
TTITLE2=Jungle Swing
TTITLE3=Harlem Camp Meeting
TTITLE4=Zaz, Zuh, Zaz
TTITLE5=Two Blocks Down Turn Left
TTITLE6=Hotcha (Razz-Ma-Tazz)
TTITLE7=Lady With The Fan
TTITLE8=The Honeydripper
TTITLE9=The Scat Song
TTITLE10=Jitter Bug
TTITLE11=The Calloway Boogie
TTITLE12=Beale Street Mama
TTITLE13=Old Yazoo
EXTD=YEAR: 1999
EXTT0=
EXTT1=
EXTT2=
EXTT3=
EXTT4=
EXTT5=
EXTT6=
EXTT7=
EXTT8=
EXTT9=
EXTT10=
EXTT11=
EXTT12=
EXTT13=
PLAYORDER=
